<?xml version="1.0" encoding="utf-8"?>
<!-- Generator: Adobe Illustrator 27.3.1, SVG Export Plug-In . SVG Version: 6.00 Build 0)  -->
<svg version="1.1" xmlns="http://www.w3.org/2000/svg" xmlns:xlink="http://www.w3.org/1999/xlink" x="0px" y="0px"
	 viewBox="0 0 1040 410" style="enable-background:new 0 0 1040 410;" xml:space="preserve">
<style type="text/css">
	.st0{fill:#FFFFFF;}
	.st1{clip-path:url(#SVGID_00000124868860287781064150000001639610405411597239_);}
	.st2{clip-path:url(#SVGID_00000040532901422160590370000007291543328676107420_);}
	.st3{fill:#D0CECE;}
	.st4{fill:#7F7F7F;}
	.st5{fill:#FFFFFF;stroke:#595959;stroke-width:1.3333;stroke-miterlimit:8;stroke-dasharray:4,1.3333;}
	.st6{font-family:'Roboto-Light';}
	.st7{font-size:13px;}
	.st8{fill:none;stroke:#D0CECE;stroke-width:1.3333;stroke-miterlimit:8;}
	.st9{fill:#BFBFBF;stroke:#2F528F;stroke-width:1.3333;stroke-miterlimit:8;}
	.st10{font-size:14px;}
	.st11{font-size:21px;}
	.st12{fill:none;stroke:#7F7F7F;stroke-width:2;stroke-miterlimit:8;}
	.st13{font-size:17px;}
	.st14{fill:none;stroke:#A6A6A6;stroke-width:1.3333;stroke-miterlimit:8;}
	.st15{font-size:16px;}
	.st16{fill:#4472C4;}
	.st17{font-size:11px;}
	.st18{fill:#FFC000;stroke:#7F7F7F;stroke-width:1.3333;stroke-miterlimit:8;}
	.st19{fill:#00B050;stroke:#7F7F7F;stroke-width:1.3333;stroke-miterlimit:8;}
	.st20{fill:#0070C0;stroke:#7F7F7F;stroke-width:1.3333;stroke-miterlimit:8;}
	.st21{fill:#FF0000;stroke:#7F7F7F;stroke-width:1.3333;stroke-miterlimit:8;}
	.st22{fill:#8497B0;stroke:#7F7F7F;stroke-width:1.3333;stroke-miterlimit:8;}
	.st23{fill:none;stroke:#7F7F7F;stroke-width:1.3333;stroke-miterlimit:8;}
	.st24{fill:#FFFFFF;stroke:#D0CECE;stroke-width:1.3333;stroke-miterlimit:8;}
	.st25{fill:none;stroke:#595959;stroke-width:1.3333;stroke-miterlimit:8;stroke-dasharray:4,1.3333;}
	.st26{font-size:24px;}
	.st27{fill:#00B050;stroke:#2F528F;stroke-width:1.3333;stroke-miterlimit:8;}
	.st28{fill:#0070C0;stroke:#2F528F;stroke-width:1.3333;stroke-miterlimit:8;}
	.st29{fill-rule:evenodd;clip-rule:evenodd;fill:#8497B0;stroke:#000000;stroke-linejoin:round;stroke-miterlimit:10;}
	.st30{fill-rule:evenodd;clip-rule:evenodd;fill:#FF0000;stroke:#000000;stroke-linejoin:round;stroke-miterlimit:10;}
	.st31{fill:none;stroke:#FF0000;stroke-width:3;stroke-linejoin:round;stroke-miterlimit:10;stroke-dasharray:9,3;}
	.st32{font-size:15px;}
	.st33{fill:#FF0000;stroke:#2F528F;stroke-width:1.3333;stroke-miterlimit:8;}
	.st34{fill:#FFC000;stroke:#2F528F;stroke-width:1.3333;stroke-miterlimit:8;}
	.st35{fill:#8497B0;stroke:#2F528F;stroke-width:1.3333;stroke-miterlimit:8;}
	.st36{fill-rule:evenodd;clip-rule:evenodd;fill:#FFC000;stroke:#000000;stroke-linejoin:round;stroke-miterlimit:10;}
	.st37{fill:none;stroke:#000000;stroke-linejoin:round;stroke-miterlimit:10;}
	.st38{fill:none;stroke:#FFC000;stroke-width:3;stroke-linejoin:round;stroke-miterlimit:10;stroke-dasharray:9,3;}
	.st39{fill-rule:evenodd;clip-rule:evenodd;fill:#00B050;stroke:#000000;stroke-linejoin:round;stroke-miterlimit:10;}
	.st40{fill:none;stroke:#00B050;stroke-width:3;stroke-linejoin:round;stroke-miterlimit:10;stroke-dasharray:9,3;}
	.st41{fill-rule:evenodd;clip-rule:evenodd;fill:#0070C0;stroke:#000000;stroke-linejoin:round;stroke-miterlimit:10;}
	.st42{fill:none;stroke:#0070C0;stroke-width:3;stroke-linejoin:round;stroke-miterlimit:10;stroke-dasharray:9,3;}
	.st43{fill:none;stroke:#8497B0;stroke-width:3;stroke-linejoin:round;stroke-miterlimit:10;stroke-dasharray:9,3;}
</style>
<g id="Layer_2">
	<rect class="st0" width="1040" height="410"/>
</g>
<g id="svg1021" xmlns:inkscape="http://www.inkscape.org/namespaces/inkscape" xmlns:svg="http://www.w3.org/2000/svg" xmlns:sodipodi="http://sodipodi.sourceforge.net/DTD/sodipodi-0.dtd" inkscape:version="1.1 (c68e22c387, 2021-05-23)" sodipodi:docname="overview_approach_landscape.svg">
	
		<sodipodi:namedview  bordercolor="#666666" borderopacity="1.0" id="namedview1023" inkscape:current-layer="g3731" inkscape:cx="771.4702" inkscape:cy="279.72476" inkscape:pagecheckerboard="0" inkscape:pageopacity="0.0" inkscape:pageshadow="2" inkscape:window-height="1361" inkscape:window-maximized="1" inkscape:window-width="3440" inkscape:window-x="1911" inkscape:window-y="-9" inkscape:zoom="1.403165" pagecolor="#ffffff" showgrid="false">
		</sodipodi:namedview>
	<g>
		<defs>
			<rect id="SVGID_1_" x="2.5" y="4" width="1280" height="720"/>
		</defs>
		<clipPath id="SVGID_00000077293385462442097070000005727062333647437184_">
			<use xlink:href="#SVGID_1_"  style="overflow:visible;"/>
		</clipPath>
		<g id="g1019" style="clip-path:url(#SVGID_00000077293385462442097070000005727062333647437184_);">
			<g id="g4244" transform="translate(-79.837801,-30.744364)">
				<g>
					<defs>
						<rect id="SVGID_00000098184593984143864590000002145086947495227267_" x="2.5" y="4" width="1280" height="720"/>
					</defs>
					<clipPath id="SVGID_00000124156579655110922660000008523039608380970672_">
						<use xlink:href="#SVGID_00000098184593984143864590000002145086947495227267_"  style="overflow:visible;"/>
					</clipPath>
					<g id="g3731" style="clip-path:url(#SVGID_00000124156579655110922660000008523039608380970672_);">
						<path id="path2725" class="st3" d="M323.5,323.2V293h21.4v2h-20.4l1-1v29.2H323.5z M343.5,290l8,4l-8,4V290z"/>
						<path id="path2727" class="st3" d="M337.5,374l7.1,0.1l0-2l-7.1-0.1L337.5,374z M343.2,377.1l8.1-3.9l-7.9-4.1L343.2,377.1z"
							/>
						<path id="path2729" class="st3" d="M307.5,326h-0.7l1-1v80.5l-1-1h118.1v2H305.8V324h1.7V326z M423.6,401.5l8,4l-8,4V401.5z"
							/>
						<path id="path2731" class="st3" d="M364.5,374l11,0v-2l-11,0V374z M374.2,377l8-4l-8-4L374.2,377z"/>
						<path id="path2733" class="st3" d="M364.5,325l11,0v-2l-11,0V325z M374.2,328l8-4l-8-4L374.2,328z"/>
						<path id="path2735" class="st3" d="M364.5,293h11v2h-11V293z M374.2,290l8,4l-8,4V290z"/>
						<path id="path2737" class="st4" d="M144.5,387H206v2h-61.5V387z M204.7,384l8,4l-8,4V384z"/>
						<rect id="rect2739" x="85" y="64.5" class="st5" width="429" height="176"/>
						<text transform="matrix(1 0 0 1 90.1514 113)" class="st6 st7">Input:1 sample </text>
						<text transform="matrix(1 0 0 1 90.1514 130)" class="st6 st7">up</text>
						<text transform="matrix(1 0 0 1 106.8181 130)" class="st6 st7">to</text>
						<text transform="matrix(1 0 0 1 121.1514 130)" class="st6 st7">500k</text>
						<text transform="matrix(1 0 0 1 149.3413 130)" class="st6 st7">events</text>
						<text transform="matrix(1 0 0 1 90.1514 146)" class="st6 st7">á 10</text>
						<text transform="matrix(1 0 0 1 116.6514 146)" class="st6 st7">features</text>
						<path id="path2753" class="st8" d="M208.3,77.5c1.5,0,2.7,1.2,2.7,2.7v132.7c0,1.5-1.2,2.7-2.7,2.7h-10.7
							c-1.5,0-2.7-1.2-2.7-2.7V80.2c0-1.5,1.2-2.7,2.7-2.7H208.3z"/>
						<rect id="rect2755" x="196" y="200.5" class="st9" width="13" height="11"/>
						<rect id="rect2757" x="197" y="82.5" class="st9" width="12" height="12"/>
						<rect id="rect2759" x="197" y="99.5" class="st9" width="12" height="12"/>
						<rect id="rect2761" x="197" y="117.5" class="st9" width="12" height="12"/>
						<rect id="rect2763" x="197" y="133.5" class="st9" width="12" height="12"/>
						<rect id="rect2765" x="197" y="151.5" class="st9" width="12" height="12"/>
						<rect id="rect2767" x="197" y="169.5" class="st9" width="12" height="12"/>
						<text id="text2769" transform="matrix(6.123234e-17 1 -1 6.123234e-17 198.4276 185)" class="st6 st10">…</text>
						<text id="text2771" transform="matrix(1 0 0 1 91.0561 85)" class="st6 st11">Encoder</text>
						<path id="path2773" class="st8" d="M496.2,73.5c1.6,0,2.8,1.3,2.8,2.8v132.3c0,1.6-1.3,2.8-2.8,2.8h-11.3
							c-1.6,0-2.8-1.3-2.8-2.8V76.3c0-1.6,1.3-2.8,2.8-2.8H496.2z"/>
						<rect id="rect2775" x="484" y="78.5" class="st9" width="13" height="12"/>
						<rect id="rect2777" x="484" y="95.5" class="st9" width="13" height="12"/>
						<rect id="rect2779" x="485" y="113.5" class="st9" width="12" height="12"/>
						<rect id="rect2781" x="485" y="129.5" class="st9" width="12" height="12"/>
						<rect id="rect2783" x="485" y="147.5" class="st9" width="12" height="12"/>
						<rect id="rect2785" x="484" y="165.5" class="st9" width="13" height="12"/>
						<rect id="rect2787" x="484" y="194.5" class="st9" width="13" height="12"/>
						<text id="text2789" transform="matrix(6.123234e-17 1 -1 6.123234e-17 486.246 181)" class="st6 st10">…</text>
						<path id="path2791" class="st12" d="M400.5,249.4h90.1V211"/>
						<path id="path2793" class="st4" d="M439.5,146h33.6v2h-33.6V146z M471.8,143l8,4l-8,4V143z"/>
						<path id="path2795" class="st3" d="M304.5,101l11,0v2l-11,0V101z M314.2,98l8,4l-8,4V98z"/>
						<path id="path2797" class="st3" d="M304.5,182l11,0v-2l-11,0V182z M314.2,185l8-4l-8-4L314.2,185z"/>
						<path id="path2799" class="st3" d="M304.5,133l11,0v-2l-11,0V133z M314.2,136l8-4l-8-4L314.2,136z"/>
						<path id="path2801" class="st3" d="M278.5,182l7.1,0.1l0-2l-7.1-0.1L278.5,182z M284.2,185.1l8.1-3.9l-7.9-4.1L284.2,185.1z"
							/>
						<text id="text2803" transform="matrix(1 0 0 1 238.542 85)" class="st6 st13">ISAB</text>
						<rect id="rect2805" x="238" y="70.5" class="st14" width="204" height="166"/>
						<rect id="rect2807" x="323" y="81.5" class="st8" width="35" height="122"/>
						<text transform="matrix(6.123234e-17 -1 1 6.123234e-17 336.074 181.0004)" class="st6 st15">Transformer </text>
						<text transform="matrix(6.123234e-17 -1 1 6.123234e-17 351.074 159.0004)" class="st6 st15">Block</text>
						<rect id="rect2813" x="293" y="174.5" class="st8" width="12" height="14"/>
						<text id="text2815" transform="matrix(6.123234e-17 -1 1 6.123234e-17 303.407 186.0004)" class="st6 st7">Q</text>
						<path id="path2817" class="st16" d="M264.5,131.2V101h21.4v2h-20.4l1-1v29.2H264.5z M284.5,98l8,4l-8,4V98z"/>
						<rect id="rect2819" x="259" y="151.5" class="st8" width="20" height="55"/>
						<text transform="matrix(6.123234e-17 -1 1 6.123234e-17 266.1 196.0004)" class="st6 st17">Induced </text>
						<text transform="matrix(6.123234e-17 -1 1 6.123234e-17 275.1 192.0004)" class="st6 st17">Points</text>
						<rect id="rect2825" x="293" y="125.5" class="st8" width="12" height="14"/>
						<text id="text2827" transform="matrix(6.123234e-17 -1 1 6.123234e-17 303.407 136.0004)" class="st6 st7">K</text>
						<rect id="rect2829" x="293" y="95.5" class="st8" width="12" height="14"/>
						<text id="text2831" transform="matrix(6.123234e-17 -1 1 6.123234e-17 303.407 106.0004)" class="st6 st7">V</text>
						<rect id="rect2833" x="403" y="109.5" class="st8" width="35" height="122"/>
						<text transform="matrix(6.123234e-17 -1 1 6.123234e-17 415.738 209.0004)" class="st6 st15">Transformer </text>
						<text transform="matrix(6.123234e-17 -1 1 6.123234e-17 432.738 187.0004)" class="st6 st15">Block</text>
						<rect id="rect2839" x="373" y="206.5" class="st8" width="12" height="14"/>
						<text id="text2841" transform="matrix(6.123234e-17 -1 1 6.123234e-17 383.458 218.0004)" class="st6 st7">Q</text>
						<path id="path2843" class="st3" d="M384.5,161l11,0v-2l-11,0V161z M394.2,164l8-4l-8-4L394.2,164z"/>
						<path id="path2845" class="st16" d="M384.5,129h11v2h-11V129z M394.2,126l8,4l-8,4V126z"/>
						<path id="path2847" class="st3" d="M384.5,214l11,0v-2l-10,0L384.5,214z M394.2,217l8-4l-8-4L394.2,217z"/>
						<rect id="rect2849" x="373" y="153.5" class="st8" width="12" height="14"/>
						<text id="text2851" transform="matrix(6.123234e-17 -1 1 6.123234e-17 383.458 164.0004)" class="st6 st7">K</text>
						<rect id="rect2853" x="373" y="123.5" class="st8" width="12" height="14"/>
						<text id="text2855" transform="matrix(6.123234e-17 -1 1 6.123234e-17 383.458 134.0004)" class="st6 st7">V</text>
						<path id="path2857" class="st16" d="M248.5,134h-0.7l1-1v80.5l-1-1h118.1v2H246.8V132h1.7V134z M364.6,209.5l8,4l-8,4V209.5z"
							/>
						<path id="path2859" class="st16" d="M264.5,131.2V101h21.4v2h-20.4l1-1v29.2H264.5z M284.5,98l8,4l-8,4V98z"/>
						<path id="path2861" class="st16" d="M248.5,134h-0.7l1-1v80.5l-1-1h118.1v2H246.8V132h1.7V134z M364.6,209.5l8,4l-8,4V209.5z"
							/>
						<path id="path2863" class="st16" d="M264.5,131.2V101h21.4v2h-20.4l1-1v29.2H264.5z M284.5,98l8,4l-8,4V98z"/>
						<path id="path2865" class="st16" d="M248.5,134h-0.7l1-1v80.5l-1-1h118.1v2H246.8V132h1.7V134z M364.6,209.5l8,4l-8,4V209.5z"
							/>
						<path id="path2867" class="st3" d="M384.5,129h11v2h-11V129z M394.2,126l8,4l-8,4V126z"/>
						<path id="path2869" class="st3" d="M357.5,142.5h7.9l1.4-9.9l-2-0.3l-1.2,9l1-0.9h-7.1V142.5z M366,136.6l6-6.6l-8.9-0.8
							L366,136.6z"/>
						<path id="path2871" class="st3" d="M357.5,141h8.2l1.3,16.6l-2,0.2l-1.2-15.7l1,0.9h-7.3V141z M366.4,153.5l5.6,7l-8.9,0.2
							L366.4,153.5z"/>
						<path id="path2873" class="st4" d="M264.5,131.2V101h21.4v2h-20.4l1-1v29.2H264.5z M284.5,98l8,4l-8,4V98z"/>
						<path id="path2875" class="st4" d="M248.5,134h-0.7l1-1v80.5l-1-1h118.1v2H246.8V132h1.7V134z M364.6,209.5l8,4l-8,4V209.5z"
							/>
						<text id="text2877" transform="matrix(1 0 0 1 240.696 233)" class="st6 st15">3x</text>
						<path id="path2879" class="st4" d="M210.5,133.8l74.3-0.7l0-2l-74.3,0.7L210.5,133.8z M283.5,136.1l8-4.1l-8-3.9L283.5,136.1z
							"/>
						<text id="text2881" transform="matrix(1 0 0 1 89.9646 276)" class="st6 st11">Decoder</text>
						<text id="text2883" transform="matrix(6.123234e-17 -1 1 6.123234e-17 106.124 398.0004)" class="st6 st15">Object Queries</text>
						<rect id="rect2885" x="213" y="380.5" class="st8" width="14" height="16"/>
						<text id="text2887" transform="matrix(6.123234e-17 -1 1 6.123234e-17 223.862 393.0004)" class="st6 st10">Q</text>
						<path id="path2889" class="st3" d="M226.5,334l13.1,0v-2l-13.1,0L226.5,334z M238.3,337l8-4l-8-4L238.3,337z"/>
						<path id="path2891" class="st3" d="M226.5,298h13.1v2h-13.1V298z M238.3,295l8,4l-8,4V295z"/>
						<path id="path2893" class="st16" d="M226.5,389l13.1,0v-2l-13.1,0L226.5,389z M238.3,392l8-4l-8-4L238.3,392z"/>
						<rect id="rect2895" x="213" y="325.5" class="st8" width="14" height="16"/>
						<text id="text2897" transform="matrix(6.123234e-17 -1 1 6.123234e-17 224.862 337.0004)" class="st6 st10">K</text>
						<rect id="rect2899" x="213" y="292.5" class="st8" width="14" height="15"/>
						<text id="text2901" transform="matrix(6.123234e-17 -1 1 6.123234e-17 224.862 303.0004)" class="st6 st10">V</text>
						<path id="path2903" class="st3" d="M280.5,323h64.1v2h-64.1V323z M343.2,320l8,4l-8,4V320z"/>
						<path id="path2905" class="st12" d="M181.5,333.3h0.4V250h219"/>
						<path id="path2907" class="st12" d="M128.5,285l15.8,0"/>
						<path id="path2909" class="st12" d="M128.5,309l15.8,0"/>
						<path id="path2911" class="st12" d="M128.5,331l15.8,0"/>
						<path id="path2913" class="st12" d="M127.5,354l15.8,0"/>
						<path id="path2915" class="st12" d="M127.5,394l15.8,0"/>
						<path id="path2917" class="st12" d="M128.5,414l15.8,0"/>
						<path id="path2919" class="st12" d="M128.5,373l15.8,0"/>
						<rect id="rect2921" x="116" y="280.5" class="st18" width="13" height="11"/>
						<rect id="rect2923" x="116" y="303.5" class="st19" width="13" height="12"/>
						<rect id="rect2925" x="116" y="325.5" class="st20" width="13" height="11"/>
						<rect id="rect2927" x="116" y="409.5" class="st21" width="13" height="11"/>
						<rect id="rect2929" x="116" y="348.5" class="st22" width="13" height="12"/>
						<rect id="rect2931" x="116" y="366.5" class="st21" width="13" height="12"/>
						<rect id="rect2933" x="116" y="387.5" class="st21" width="13" height="12"/>
						<path id="path2935" class="st12" d="M144.5,415.3l0-130.3"/>
						<rect id="rect2937" x="297" y="262.5" class="st23" width="205" height="166"/>
						<rect id="rect2939" x="382" y="273.5" class="st8" width="36" height="122"/>
						<text transform="matrix(6.123234e-17 -1 1 6.123234e-17 395.456 373.0004)" class="st6 st15">Transformer </text>
						<text transform="matrix(6.123234e-17 -1 1 6.123234e-17 410.456 351.0004)" class="st6 st15">Block</text>
						<rect id="rect2945" x="352" y="366.5" class="st8" width="13" height="14"/>
						<text id="text2947" transform="matrix(6.123234e-17 -1 1 6.123234e-17 362.789 378.0004)" class="st6 st7">Q</text>
						<rect id="rect2949" x="352" y="317.5" class="st8" width="13" height="14"/>
						<text id="text2951" transform="matrix(6.123234e-17 -1 1 6.123234e-17 362.789 328.0004)" class="st6 st7">K</text>
						<rect id="rect2953" x="352" y="287.5" class="st8" width="13" height="14"/>
						<text id="text2955" transform="matrix(6.123234e-17 -1 1 6.123234e-17 362.789 298.0004)" class="st6 st7">V</text>
						<rect id="rect2957" x="462" y="301.5" class="st8" width="36" height="122"/>
						<text transform="matrix(6.123234e-17 -1 1 6.123234e-17 475.12 401.0004)" class="st6 st15">Transformer </text>
						<text transform="matrix(6.123234e-17 -1 1 6.123234e-17 492.12 379.0004)" class="st6 st15">Block</text>
						<rect id="rect2963" x="432" y="398.5" class="st8" width="13" height="14"/>
						<text id="text2965" transform="matrix(6.123234e-17 -1 1 6.123234e-17 442.839 410.0004)" class="st6 st7">Q</text>
						<path id="path2967" class="st3" d="M444.5,353l11,0v-2l-11,0V353z M454.2,356l8-4l-8-4L454.2,356z"/>
						<path id="path2969" class="st16" d="M444.5,321h11v2h-11V321z M454.2,318l8,4l-8,4V318z"/>
						<path id="path2971" class="st3" d="M444.5,406l11,0v-2l-11,0V406z M454.2,409l8-4l-8-4L454.2,409z"/>
						<rect id="rect2973" x="432" y="345.5" class="st8" width="13" height="14"/>
						<text id="text2975" transform="matrix(6.123234e-17 -1 1 6.123234e-17 443.4544 356.1332)" class="st6 st7">K</text>
						<rect id="rect2977" x="432" y="315.5" class="st8" width="13" height="14"/>
						<text id="text2979" transform="matrix(6.123234e-17 -1 1 6.123234e-17 442.839 326.0004)" class="st6 st7">V</text>
						<path id="path2981" class="st3" d="M444.5,321h11v2h-11V321z M454.2,318l8,4l-8,4V318z"/>
						<path id="path2983" class="st3" d="M416.5,334.5h7.9l1.4-9.9l-2-0.3l-1.2,9l1-0.9h-7.1V334.5z M425,328.6l6-6.6l-8.9-0.8
							L425,328.6z"/>
						<path id="path2985" class="st3" d="M416.5,333h8.2l1.3,16.6l-2,0.2l-1.2-15.7l1,0.9h-7.3V333z M425.4,345.5l5.6,7l-8.9,0.2
							L425.4,345.5z"/>
						<text id="text2987" transform="matrix(1 0 0 1 300.078 425)" class="st6 st15">2x</text>
						<rect id="rect2989" x="246" y="288.5" class="st24" width="35" height="121"/>
						<text transform="matrix(6.123234e-17 -1 1 6.123234e-17 259.018 388.0004)" class="st6 st15">Transformer </text>
						<text transform="matrix(6.123234e-17 -1 1 6.123234e-17 274.018 366.0004)" class="st6 st15">Block</text>
						<path id="path2995" class="st3" d="M226.5,389l13.1,0v-2l-13.1,0L226.5,389z M238.3,392l8-4l-8-4L238.3,392z"/>
						<path id="path2997" class="st4" d="M180.5,332h25v2h-25V332z M204.2,329l8,4l-8,4V329z"/>
						<rect id="rect2999" x="85" y="256.5" class="st25" width="429" height="180"/>
						<path id="path3001" class="st4" d="M497.5,361h32.9v2h-32.9V361z M529,358l8,4l-8,4V358z"/>
						<text id="text3003" transform="matrix(1 0 0 1 301.513 281)" class="st6 st13">ISAB</text>
						<path id="path3005" class="st4" d="M180.5,299l25,0.2l0,2l-25-0.2L180.5,299z M204.2,296.2l8,4.1l-8,3.9L204.2,296.2z"/>
						<text id="text3007" transform="matrix(1 0 0 1 320.978 52)" class="st6 st26">Model</text>
						<path id="path3009" class="st12" d="M761.5,91.7l0-11.7"/>
						<rect id="rect3011" x="756" y="91.5" class="st27" width="13" height="12"/>
						<text id="text3013" transform="matrix(1 0 0 1 775.2629 103)" class="st6 st15">Singlets</text>
						<path id="path3015" class="st12" d="M909.5,91.7l0-11.7"/>
						<rect id="rect3017" x="904" y="91.5" class="st28" width="12" height="12"/>
						<text id="text3019" transform="matrix(1 0 0 1 923.756 101)" class="st6 st15">Intact</text>
						<path id="path3021" class="st29" d="M1091,355.5c0-1.1,0.9-2,2-2s2,0.9,2,2s-0.9,2-2,2S1091,356.6,1091,355.5z"/>
						<path id="path3023" class="st29" d="M1097,362c0-1.4,0.9-2.5,2-2.5s2,1.1,2,2.5s-0.9,2.5-2,2.5S1097,363.4,1097,362z"/>
						<path id="path3025" class="st29" d="M1073,364.5c0-1.1,1.1-2,2.5-2s2.5,0.9,2.5,2s-1.1,2-2.5,2S1073,365.6,1073,364.5z"/>
						<path id="path3027" class="st29" d="M1058,357c0-1.4,0.9-2.5,2-2.5s2,1.1,2,2.5s-0.9,2.5-2,2.5S1058,358.4,1058,357z"/>
						<path id="path3029" class="st29" d="M1073,352.5c0-1.1,0.9-2,2-2s2,0.9,2,2s-0.9,2-2,2S1073,353.6,1073,352.5z"/>
						<path id="path3031" class="st29" d="M1056,340.5c0-1.1,1.1-2,2.5-2s2.5,0.9,2.5,2s-1.1,2-2.5,2S1056,341.6,1056,340.5z"/>
						<path id="path3033" class="st29" d="M1073,341c0-1.4,1.1-2.5,2.5-2.5s2.5,1.1,2.5,2.5s-1.1,2.5-2.5,2.5S1073,342.4,1073,341z"
							/>
						<path id="path3035" class="st29" d="M1092,345.5c0-1.1,1.1-2,2.5-2s2.5,0.9,2.5,2s-1.1,2-2.5,2S1092,346.6,1092,345.5z"/>
						<path id="path3037" class="st29" d="M1083,339.5c0-1.1,0.9-2,2-2s2,0.9,2,2s-0.9,2-2,2S1083,340.6,1083,339.5z"/>
						<path id="path3039" class="st29" d="M1063,346.5c0-1.1,0.9-2,2-2s2,0.9,2,2s-0.9,2-2,2S1063,347.6,1063,346.5z"/>
						<path id="path3041" class="st29" d="M1099,341.5c0-1.1,0.9-2,2-2s2,0.9,2,2s-0.9,2-2,2S1099,342.6,1099,341.5z"/>
						<path id="path3043" class="st29" d="M1099,353c0-1.4,1.1-2.5,2.5-2.5s2.5,1.1,2.5,2.5s-1.1,2.5-2.5,2.5S1099,354.4,1099,353z"
							/>
						<path id="path3045" class="st30" d="M1035,304.5c0-1.1,1.1-2,2.5-2s2.5,0.9,2.5,2s-1.1,2-2.5,2S1035,305.6,1035,304.5z"/>
						<path id="path3047" class="st30" d="M1042,311c0-1.4,0.9-2.5,2-2.5s2,1.1,2,2.5s-0.9,2.5-2,2.5S1042,312.4,1042,311z"/>
						<path id="path3049" class="st30" d="M1018,313.5c0-1.1,0.9-2,2-2s2,0.9,2,2s-0.9,2-2,2S1018,314.6,1018,313.5z"/>
						<path id="path3051" class="st30" d="M1002,306c0-1.4,1.1-2.5,2.5-2.5s2.5,1.1,2.5,2.5s-1.1,2.5-2.5,2.5S1002,307.4,1002,306z"
							/>
						<path id="path3053" class="st30" d="M1017,301.5c0-1.1,1.1-2,2.5-2s2.5,0.9,2.5,2s-1.1,2-2.5,2S1017,302.6,1017,301.5z"/>
						<path id="path3055" class="st30" d="M1001,289.5c0-1.1,0.9-2,2-2s2,0.9,2,2s-0.9,2-2,2S1001,290.6,1001,289.5z"/>
						<path id="path3057" class="st30" d="M1018,290c0-1.4,0.9-2.5,2-2.5s2,1.1,2,2.5s-0.9,2.5-2,2.5S1018,291.4,1018,290z"/>
						<path id="path3059" class="st30" d="M1037,294.5c0-1.1,0.9-2,2-2s2,0.9,2,2s-0.9,2-2,2S1037,295.6,1037,294.5z"/>
						<path id="path3061" class="st30" d="M1027,288.5c0-1.1,1.1-2,2.5-2s2.5,0.9,2.5,2s-1.1,2-2.5,2S1027,289.6,1027,288.5z"/>
						<path id="path3063" class="st30" d="M1007,295.5c0-1.1,1.1-2,2.5-2s2.5,0.9,2.5,2s-1.1,2-2.5,2S1007,296.6,1007,295.5z"/>
						<path id="path3065" class="st30" d="M1043,290.5c0-1.1,1.1-2,2.5-2s2.5,0.9,2.5,2s-1.1,2-2.5,2S1043,291.6,1043,290.5z"/>
						<path id="path3067" class="st30" d="M1044,302c0-1.4,0.9-2.5,2-2.5s2,1.1,2,2.5s-0.9,2.5-2,2.5S1044,303.4,1044,302z"/>
						<path id="path3069" class="st29" d="M1096,318.5c0-1.1,0.9-2,2-2s2,0.9,2,2s-0.9,2-2,2S1096,319.6,1096,318.5z"/>
						<path id="path3071" class="st29" d="M1102,324.5c0-1.1,1.1-2,2.5-2s2.5,0.9,2.5,2s-1.1,2-2.5,2S1102,325.6,1102,324.5z"/>
						<path id="path3073" class="st29" d="M1079,327.5c0-1.1,0.9-2,2-2s2,0.9,2,2s-0.9,2-2,2S1079,328.6,1079,327.5z"/>
						<path id="path3075" class="st29" d="M1065,333.5c0-1.1,1.1-2,2.5-2s2.5,0.9,2.5,2s-1.1,2-2.5,2S1065,334.6,1065,333.5z"/>
						<path id="path3077" class="st29" d="M1078,315.5c0-1.1,0.9-2,2-2s2,0.9,2,2s-0.9,2-2,2S1078,316.6,1078,315.5z"/>
						<path id="path3079" class="st29" d="M1069,315.5c0-1.1,1.1-2,2.5-2s2.5,0.9,2.5,2s-1.1,2-2.5,2S1069,316.6,1069,315.5z"/>
						<path id="path3081" class="st29" d="M1079,303.5c0-1.1,0.9-2,2-2s2,0.9,2,2s-0.9,2-2,2S1079,304.6,1079,303.5z"/>
						<path id="path3083" class="st29" d="M1086,315c0-1.4,0.9-2.5,2-2.5s2,1.1,2,2.5s-0.9,2.5-2,2.5S1086,316.4,1086,315z"/>
						<path id="path3085" class="st29" d="M1088,302c0-1.4,0.9-2.5,2-2.5s2,1.1,2,2.5s-0.9,2.5-2,2.5S1088,303.4,1088,302z"/>
						<path id="path3087" class="st29" d="M1070,323c0-1.4,1.1-2.5,2.5-2.5s2.5,1.1,2.5,2.5s-1.1,2.5-2.5,2.5S1070,324.4,1070,323z"
							/>
						<path id="path3089" class="st29" d="M1095,307.5c0-1.1,0.9-2,2-2s2,0.9,2,2s-0.9,2-2,2S1095,308.6,1095,307.5z"/>
						<path id="path3091" class="st29" d="M1104,315.5c0-1.1,1.1-2,2.5-2s2.5,0.9,2.5,2s-1.1,2-2.5,2S1104,316.6,1104,315.5z"/>
						<path id="path3093" class="st29" d="M1075,358c0-1.4,1.1-2.5,2.5-2.5s2.5,1.1,2.5,2.5s-1.1,2.5-2.5,2.5S1075,359.4,1075,358z"
							/>
						<path id="path3095" class="st29" d="M1082,364c0-1.4,0.9-2.5,2-2.5s2,1.1,2,2.5s-0.9,2.5-2,2.5S1082,365.4,1082,364z"/>
						<path id="path3097" class="st29" d="M1084,355c0-1.4,0.9-2.5,2-2.5s2,1.1,2,2.5s-0.9,2.5-2,2.5S1084,356.4,1084,355z"/>
						<path id="path3099" class="st29" d="M997,350.5c0-1.1,0.9-2,2-2c1.1,0,2,0.9,2,2s-0.9,2-2,2C997.9,352.5,997,351.6,997,350.5z
							"/>
						<path id="path3101" class="st29" d="M1003,356c0-1.4,1.1-2.5,2.5-2.5s2.5,1.1,2.5,2.5s-1.1,2.5-2.5,2.5S1003,357.4,1003,356z"
							/>
						<path id="path3103" class="st29" d="M1005,347.5c0-1.1,0.9-2,2-2s2,0.9,2,2s-0.9,2-2,2S1005,348.6,1005,347.5z"/>
						<path id="path3105" class="st29" d="M1012,353.5c0-1.1,0.9-2,2-2s2,0.9,2,2s-0.9,2-2,2S1012,354.6,1012,353.5z"/>
						<path id="path3107" class="st29" d="M1011,362.5c0-1.1,0.9-2,2-2s2,0.9,2,2s-0.9,2-2,2S1011,363.6,1011,362.5z"/>
						<path id="path3109" class="st29" d="M1023,354.5c0-1.1,1.1-2,2.5-2s2.5,0.9,2.5,2s-1.1,2-2.5,2S1023,355.6,1023,354.5z"/>
						<path id="path3111" class="st31" d="M996,285l2.5,29.5l25.5,8.9l30-11.1c-0.1-7.9-0.2-15.9-0.3-23.8l-33.6-7L996,285z"/>
						<path id="path3113" d="M989.5,369l123.3,0.3v2L989.5,371L989.5,369z M1111.5,366.3l8,4l-8,4L1111.5,366.3z"/>
						<text id="text3115" transform="matrix(1 0 0 1 1034.35 388)" class="st6 st32">CD38</text>
						<path id="path3117" class="st29" d="M1104,345.5c0-1.1,1.1-2,2.5-2s2.5,0.9,2.5,2s-1.1,2-2.5,2S1104,346.6,1104,345.5z"/>
						<path id="path3119" class="st29" d="M1108,353.5c0-1.1,1.1-2,2.5-2s2.5,0.9,2.5,2s-1.1,2-2.5,2S1108,354.6,1108,353.5z"/>
						<path id="path3121" class="st29" d="M770,353.5c0-1.1,0.9-2,2-2c1.1,0,2,0.9,2,2s-0.9,2-2,2C770.9,355.5,770,354.6,770,353.5z
							"/>
						<path id="path3123" class="st29" d="M776,360c0-1.4,0.9-2.5,2-2.5c1.1,0,2,1.1,2,2.5s-0.9,2.5-2,2.5
							C776.9,362.5,776,361.4,776,360z"/>
						<path id="path3125" class="st29" d="M752,362.5c0-1.1,1.1-2,2.5-2s2.5,0.9,2.5,2s-1.1,2-2.5,2S752,363.6,752,362.5z"/>
						<path id="path3127" class="st29" d="M737,355c0-1.4,0.9-2.5,2-2.5c1.1,0,2,1.1,2,2.5s-0.9,2.5-2,2.5
							C737.9,357.5,737,356.4,737,355z"/>
						<path id="path3129" class="st29" d="M751,350.5c0-1.1,1.1-2,2.5-2s2.5,0.9,2.5,2s-1.1,2-2.5,2S751,351.6,751,350.5z"/>
						<path id="path3131" class="st29" d="M735,338.5c0-1.1,1.1-2,2.5-2s2.5,0.9,2.5,2s-1.1,2-2.5,2S735,339.6,735,338.5z"/>
						<path id="path3133" class="st29" d="M752,339c0-1.4,1.1-2.5,2.5-2.5s2.5,1.1,2.5,2.5s-1.1,2.5-2.5,2.5S752,340.4,752,339z"/>
						<path id="path3135" class="st29" d="M771,343.5c0-1.1,0.9-2,2-2c1.1,0,2,0.9,2,2s-0.9,2-2,2C771.9,345.5,771,344.6,771,343.5z
							"/>
						<path id="path3137" class="st29" d="M762,337.5c0-1.1,0.9-2,2-2c1.1,0,2,0.9,2,2s-0.9,2-2,2C762.9,339.5,762,338.6,762,337.5z
							"/>
						<path id="path3139" class="st29" d="M741,344.5c0-1.1,1.1-2,2.5-2s2.5,0.9,2.5,2s-1.1,2-2.5,2S741,345.6,741,344.5z"/>
						<path id="path3141" class="st29" d="M777,339.5c0-1.1,1.1-2,2.5-2s2.5,0.9,2.5,2s-1.1,2-2.5,2S777,340.6,777,339.5z"/>
						<path id="path3143" class="st29" d="M778,351c0-1.4,0.9-2.5,2-2.5c1.1,0,2,1.1,2,2.5s-0.9,2.5-2,2.5
							C778.9,353.5,778,352.4,778,351z"/>
						<path id="path3145" class="st30" d="M708,302c0-1.4,0.9-2.5,2-2.5c1.1,0,2,1.1,2,2.5s-0.9,2.5-2,2.5
							C708.9,304.5,708,303.4,708,302z"/>
						<path id="path3147" class="st30" d="M714,308.5c0-1.1,0.9-2,2-2c1.1,0,2,0.9,2,2s-0.9,2-2,2C714.9,310.5,714,309.6,714,308.5z
							"/>
						<path id="path3149" class="st30" d="M690,311c0-1.4,1.1-2.5,2.5-2.5s2.5,1.1,2.5,2.5s-1.1,2.5-2.5,2.5S690,312.4,690,311z"/>
						<path id="path3151" class="st30" d="M675,303.5c0-1.1,0.9-2,2-2c1.1,0,2,0.9,2,2s-0.9,2-2,2C675.9,305.5,675,304.6,675,303.5z
							"/>
						<path id="path3153" class="st30" d="M690,299c0-1.4,0.9-2.5,2-2.5c1.1,0,2,1.1,2,2.5s-0.9,2.5-2,2.5
							C690.9,301.5,690,300.4,690,299z"/>
						<path id="path3155" class="st30" d="M673,287c0-1.4,1.1-2.5,2.5-2.5s2.5,1.1,2.5,2.5s-1.1,2.5-2.5,2.5S673,288.4,673,287z"/>
						<path id="path3157" class="st30" d="M690,287.5c0-1.1,1.1-2,2.5-2s2.5,0.9,2.5,2s-1.1,2-2.5,2S690,288.6,690,287.5z"/>
						<path id="path3159" class="st30" d="M709,291.5c0-1.1,0.9-2,2-2c1.1,0,2,0.9,2,2s-0.9,2-2,2C709.9,293.5,709,292.6,709,291.5z
							"/>
						<path id="path3161" class="st30" d="M700,286c0-1.4,0.9-2.5,2-2.5c1.1,0,2,1.1,2,2.5s-0.9,2.5-2,2.5
							C700.9,288.5,700,287.4,700,286z"/>
						<path id="path3163" class="st30" d="M679,293c0-1.4,1.1-2.5,2.5-2.5s2.5,1.1,2.5,2.5s-1.1,2.5-2.5,2.5S679,294.4,679,293z"/>
						<path id="path3165" class="st30" d="M715,288c0-1.4,1.1-2.5,2.5-2.5s2.5,1.1,2.5,2.5s-1.1,2.5-2.5,2.5S715,289.4,715,288z"/>
						<path id="path3167" class="st30" d="M716,299.5c0-1.1,1.1-2,2.5-2s2.5,0.9,2.5,2s-1.1,2-2.5,2S716,300.6,716,299.5z"/>
						<path id="path3169" class="st29" d="M775,316.5c0-1.1,0.9-2,2-2c1.1,0,2,0.9,2,2s-0.9,2-2,2C775.9,318.5,775,317.6,775,316.5z
							"/>
						<path id="path3171" class="st29" d="M757,325c0-1.4,1.1-2.5,2.5-2.5s2.5,1.1,2.5,2.5s-1.1,2.5-2.5,2.5S757,326.4,757,325z"/>
						<path id="path3173" class="st29" d="M744,331.5c0-1.1,1.1-2,2.5-2s2.5,0.9,2.5,2s-1.1,2-2.5,2S744,332.6,744,331.5z"/>
						<path id="path3175" class="st29" d="M757,313c0-1.4,0.9-2.5,2-2.5c1.1,0,2,1.1,2,2.5s-0.9,2.5-2,2.5
							C757.9,315.5,757,314.4,757,313z"/>
						<path id="path3177" class="st29" d="M748,313c0-1.4,0.9-2.5,2-2.5c1.1,0,2,1.1,2,2.5s-0.9,2.5-2,2.5
							C748.9,315.5,748,314.4,748,313z"/>
						<path id="path3179" class="st29" d="M757,301.5c0-1.1,1.1-2,2.5-2s2.5,0.9,2.5,2s-1.1,2-2.5,2S757,302.6,757,301.5z"/>
						<path id="path3181" class="st29" d="M765,312.5c0-1.1,0.9-2,2-2c1.1,0,2,0.9,2,2s-0.9,2-2,2C765.9,314.5,765,313.6,765,312.5z
							"/>
						<path id="path3183" class="st29" d="M767,300c0-1.4,0.9-2.5,2-2.5c1.1,0,2,1.1,2,2.5s-0.9,2.5-2,2.5
							C767.9,302.5,767,301.4,767,300z"/>
						<path id="path3185" class="st29" d="M749,321c0-1.4,0.9-2.5,2-2.5c1.1,0,2,1.1,2,2.5s-0.9,2.5-2,2.5
							C749.9,323.5,749,322.4,749,321z"/>
						<path id="path3187" class="st29" d="M774,305.5c0-1.1,0.9-2,2-2c1.1,0,2,0.9,2,2s-0.9,2-2,2C774.9,307.5,774,306.6,774,305.5z
							"/>
						<path id="path3189" class="st29" d="M754,355.5c0-1.1,1.1-2,2.5-2s2.5,0.9,2.5,2s-1.1,2-2.5,2S754,356.6,754,355.5z"/>
						<path id="path3191" class="st29" d="M760,362c0-1.4,1.1-2.5,2.5-2.5s2.5,1.1,2.5,2.5s-1.1,2.5-2.5,2.5S760,363.4,760,362z"/>
						<path id="path3193" class="st29" d="M763,353c0-1.4,0.9-2.5,2-2.5c1.1,0,2,1.1,2,2.5s-0.9,2.5-2,2.5
							C763.9,355.5,763,354.4,763,353z"/>
						<path id="path3195" class="st29" d="M669,347.5c0-1.1,0.9-2,2-2c1.1,0,2,0.9,2,2s-0.9,2-2,2C669.9,349.5,669,348.6,669,347.5z
							"/>
						<path id="path3197" class="st29" d="M676,353.5c0-1.1,0.9-2,2-2c1.1,0,2,0.9,2,2s-0.9,2-2,2C676.9,355.5,676,354.6,676,353.5z
							"/>
						<path id="path3199" class="st29" d="M677,345c0-1.4,1.1-2.5,2.5-2.5s2.5,1.1,2.5,2.5s-1.1,2.5-2.5,2.5S677,346.4,677,345z"/>
						<path id="path3201" class="st29" d="M684,351c0-1.4,0.9-2.5,2-2.5c1.1,0,2,1.1,2,2.5s-0.9,2.5-2,2.5
							C684.9,353.5,684,352.4,684,351z"/>
						<path id="path3203" class="st29" d="M683,359.5c0-1.1,1.1-2,2.5-2s2.5,0.9,2.5,2s-1.1,2-2.5,2S683,360.6,683,359.5z"/>
						<path id="path3205" class="st29" d="M696,352c0-1.4,0.9-2.5,2-2.5c1.1,0,2,1.1,2,2.5s-0.9,2.5-2,2.5
							C696.9,354.5,696,353.4,696,352z"/>
						<path id="path3207" class="st31" d="M669,282l2.5,29.5l25.1,8.9l29.5-11.1c-0.1-7.9-0.2-15.9-0.3-23.8l-33-7L669,282z"/>
						<path id="path3209" d="M664.5,369.9l0-94.3h-2l0,94.3H664.5z M667.5,277l-4-8l-4,8H667.5z"/>
						<path id="path3211" d="M662.5,369l122.4,0.3l0,2L662.5,371L662.5,369z M783.6,366.3l8,4l-8,4L783.6,366.3z"/>
						<text id="text3213" transform="matrix(6.123234e-17 -1 1 6.123234e-17 658.95 343.0004)" class="st6 st32">CD10</text>
						<text id="text3215" transform="matrix(1 0 0 1 708.2169 387)" class="st6 st32">CD45</text>
						<rect id="rect3217" x="698" y="249.5" class="st33" width="12" height="12"/>
						<text id="text3219" transform="matrix(1 0 0 1 717.531 261)" class="st6 st15">Blast</text>
						<text id="text3221" transform="matrix(6.123234e-17 -1 1 6.123234e-17 826.223 345.0004)" class="st6 st32">CD10</text>
						<path id="path3223" class="st29" d="M863,305.5c0-1.1,1.1-2,2.5-2s2.5,0.9,2.5,2s-1.1,2-2.5,2S863,306.6,863,305.5z"/>
						<path id="path3225" class="st29" d="M865,295.5c0-1.1,0.9-2,2-2c1.1,0,2,0.9,2,2s-0.9,2-2,2C865.9,297.5,865,296.6,865,295.5z
							"/>
						<path id="path3227" class="st29" d="M892,292c0-1.4,0.9-2.5,2-2.5c1.1,0,2,1.1,2,2.5s-0.9,2.5-2,2.5
							C892.9,294.5,892,293.4,892,292z"/>
						<path id="path3229" class="st29" d="M871,291.5c0-1.1,1.1-2,2.5-2s2.5,0.9,2.5,2s-1.1,2-2.5,2S871,292.6,871,291.5z"/>
						<path id="path3231" class="st29" d="M872,303c0-1.4,0.9-2.5,2-2.5c1.1,0,2,1.1,2,2.5s-0.9,2.5-2,2.5
							C872.9,305.5,872,304.4,872,303z"/>
						<path id="path3233" class="st29" d="M879,295c0-1.4,1.1-2.5,2.5-2.5s2.5,1.1,2.5,2.5s-1.1,2.5-2.5,2.5S879,296.4,879,295z"/>
						<path id="path3235" class="st29" d="M880,307.5c0-1.1,0.9-2,2-2c1.1,0,2,0.9,2,2s-0.9,2-2,2C880.9,309.5,880,308.6,880,307.5z
							"/>
						<path id="path3237" class="st29" d="M886,300c0-1.4,0.9-2.5,2-2.5c1.1,0,2,1.1,2,2.5s-0.9,2.5-2,2.5
							C886.9,302.5,886,301.4,886,300z"/>
						<path id="path3239" class="st29" d="M894,305.5c0-1.1,0.9-2,2-2c1.1,0,2,0.9,2,2s-0.9,2-2,2C894.9,307.5,894,306.6,894,305.5z
							"/>
						<path id="path3241" class="st29" d="M900,301.5c0-1.1,1.1-2,2.5-2s2.5,0.9,2.5,2s-1.1,2-2.5,2S900,302.6,900,301.5z"/>
						<path id="path3243" class="st29" d="M909,305c0-1.4,0.9-2.5,2-2.5c1.1,0,2,1.1,2,2.5s-0.9,2.5-2,2.5
							C909.9,307.5,909,306.4,909,305z"/>
						<path id="path3245" class="st29" d="M913,317.5c0-1.1,1.1-2,2.5-2s2.5,0.9,2.5,2s-1.1,2-2.5,2S913,318.6,913,317.5z"/>
						<path id="path3247" class="st30" d="M846,336.5c0-1.1,0.9-2,2-2c1.1,0,2,0.9,2,2s-0.9,2-2,2C846.9,338.5,846,337.6,846,336.5z
							"/>
						<path id="path3249" class="st30" d="M852,333c0-1.4,1.1-2.5,2.5-2.5s2.5,1.1,2.5,2.5s-1.1,2.5-2.5,2.5S852,334.4,852,333z"/>
						<path id="path3251" class="st30" d="M861,336.5c0-1.1,0.9-2,2-2c1.1,0,2,0.9,2,2s-0.9,2-2,2C861.9,338.5,861,337.6,861,336.5z
							"/>
						<path id="path3253" class="st30" d="M865,348.5c0-1.1,1.1-2,2.5-2s2.5,0.9,2.5,2s-1.1,2-2.5,2S865,349.6,865,348.5z"/>
						<path id="path3255" class="st30" d="M846,357.5c0-1.1,0.9-2,2-2c1.1,0,2,0.9,2,2s-0.9,2-2,2C846.9,359.5,846,358.6,846,357.5z
							"/>
						<path id="path3257" class="st30" d="M847,347.5c0-1.1,1.1-2,2.5-2s2.5,0.9,2.5,2s-1.1,2-2.5,2S847,348.6,847,347.5z"/>
						<path id="path3259" class="st30" d="M854,343.5c0-1.1,0.9-2,2-2c1.1,0,2,0.9,2,2s-0.9,2-2,2C854.9,345.5,854,344.6,854,343.5z
							"/>
						<path id="path3261" class="st30" d="M854,354.5c0-1.1,1.1-2,2.5-2s2.5,0.9,2.5,2s-1.1,2-2.5,2S854,355.6,854,354.5z"/>
						<path id="path3263" class="st29" d="M925,315c0-1.4,0.9-2.5,2-2.5c1.1,0,2,1.1,2,2.5s-0.9,2.5-2,2.5
							C925.9,317.5,925,316.4,925,315z"/>
						<path id="path3265" class="st31" d="M845,330.3l0.2,31.2h7.1l21.7-11.3l-6.3-17.6l-12-5.1L845,330.3z"/>
						<path id="path3267" class="st29" d="M906,349c0-1.4,1.1-2.5,2.5-2.5s2.5,1.1,2.5,2.5s-1.1,2.5-2.5,2.5S906,350.4,906,349z"/>
						<path id="path3269" class="st29" d="M908,338.5c0-1.1,0.9-2,2-2c1.1,0,2,0.9,2,2s-0.9,2-2,2C908.9,340.5,908,339.6,908,338.5z
							"/>
						<path id="path3271" class="st29" d="M914,335c0-1.4,0.9-2.5,2-2.5c1.1,0,2,1.1,2,2.5s-0.9,2.5-2,2.5
							C914.9,337.5,914,336.4,914,335z"/>
						<path id="path3273" class="st29" d="M915,346.5c0-1.1,0.9-2,2-2c1.1,0,2,0.9,2,2s-0.9,2-2,2C915.9,348.5,915,347.6,915,346.5z
							"/>
						<path id="path3275" class="st29" d="M931,356.5c0-1.1,0.9-2,2-2c1.1,0,2,0.9,2,2s-0.9,2-2,2C931.9,358.5,931,357.6,931,356.5z
							"/>
						<path id="path3277" class="st29" d="M937,353c0-1.4,0.9-2.5,2-2.5c1.1,0,2,1.1,2,2.5s-0.9,2.5-2,2.5
							C937.9,355.5,937,354.4,937,353z"/>
						<path id="path3279" d="M831.5,370.1l0-92.4h-2l0,92.4H831.5z M834.5,279l-4-8l-4,8H834.5z"/>
						<path id="path3281" d="M831.5,368l127,0.2l0,2l-127-0.2L831.5,368z M957.1,365.2l8,4l-8,4L957.1,365.2z"/>
						<text id="text3283" transform="matrix(1 0 0 1 876.78 387)" class="st6 st32">CD20</text>
						<path id="path3285" d="M990.5,370.9l0-94.3h-2l0,94.3H990.5z M993.5,278l-4-8l-4,8H993.5z"/>
						<text id="text3287" transform="matrix(6.123234e-17 -1 1 6.123234e-17 985.485 343.0004)" class="st6 st32">CD10</text>
						<rect id="rect3289" x="864" y="251.5" class="st33" width="12" height="12"/>
						<text id="text3291" transform="matrix(1 0 0 1 883.328 263)" class="st6 st15">Blast</text>
						<rect id="rect3293" x="1020" y="251.5" class="st33" width="12" height="12"/>
						<text id="text3295" transform="matrix(1 0 0 1 1038.3101 262)" class="st6 st15">Blast</text>
						<path id="path3297" class="st12" d="M620.5,79.6l431.3-0.6"/>
						<rect id="rect3299" x="615" y="93.5" class="st34" width="13" height="12"/>
						<text id="text3301" transform="matrix(1 0 0 1 634.361 104)" class="st6 st15">Cyto</text>
						<path id="path3303" class="st12" d="M620.5,92.7l0-11.7"/>
						<text id="text3305" transform="matrix(1 0 0 1 1064.13 102)" class="st6 st15">CD19+</text>
						<rect id="rect3307" x="1045" y="91.5" class="st35" width="13" height="12"/>
						<path id="path3309" class="st12" d="M1050.5,91.3l0-11.3"/>
						<text transform="matrix(1 0 0 1 604.798 231)" class="st6 st32">Syto</text>
						<text transform="matrix(1 0 0 1 634.1313 231)" class="st6 st32">-</text>
						<text transform="matrix(1 0 0 1 638.9647 231)" class="st6 st32">41</text>
						<text transform="matrix(6.123234e-17 -1 1 6.123234e-17 583.169 187.0004)" class="st6 st32">FSC</text>
						<text transform="matrix(6.123234e-17 -1 1 6.123234e-17 583.169 157.0004)" class="st6 st32">-</text>
						<text transform="matrix(6.123234e-17 -1 1 6.123234e-17 583.169 152.0004)" class="st6 st32">A</text>
						<path id="path3323" d="M588.5,209.1l0-94.4h-2l0,94.4H588.5z M591.5,116l-4-8l-4,8L591.5,116z"/>
						<path id="path3325" class="st36" d="M664,160c0-1.4,1.1-2.5,2.5-2.5s2.5,1.1,2.5,2.5s-1.1,2.5-2.5,2.5S664,161.4,664,160z"/>
						<path id="path3327" class="st36" d="M670,166.5c0-1.1,1.1-2,2.5-2s2.5,0.9,2.5,2s-1.1,2-2.5,2S670,167.6,670,166.5z"/>
						<path id="path3329" class="st36" d="M647,169c0-1.4,0.9-2.5,2-2.5c1.1,0,2,1.1,2,2.5s-0.9,2.5-2,2.5
							C647.9,171.5,647,170.4,647,169z"/>
						<path id="path3331" class="st36" d="M631,161.5c0-1.1,0.9-2,2-2c1.1,0,2,0.9,2,2s-0.9,2-2,2C631.9,163.5,631,162.6,631,161.5z
							"/>
						<path id="path3333" class="st36" d="M646,157c0-1.4,0.9-2.5,2-2.5c1.1,0,2,1.1,2,2.5s-0.9,2.5-2,2.5
							C646.9,159.5,646,158.4,646,157z"/>
						<path id="path3335" class="st36" d="M630,145c0-1.4,0.9-2.5,2-2.5c1.1,0,2,1.1,2,2.5s-0.9,2.5-2,2.5
							C630.9,147.5,630,146.4,630,145z"/>
						<path id="path3337" class="st36" d="M647,145.5c0-1.1,0.9-2,2-2c1.1,0,2,0.9,2,2s-0.9,2-2,2C647.9,147.5,647,146.6,647,145.5z
							"/>
						<path id="path3339" class="st36" d="M665,149.5c0-1.1,1.1-2,2.5-2s2.5,0.9,2.5,2s-1.1,2-2.5,2S665,150.6,665,149.5z"/>
						<path id="path3341" class="st36" d="M656,144c0-1.4,0.9-2.5,2-2.5c1.1,0,2,1.1,2,2.5s-0.9,2.5-2,2.5
							C656.9,146.5,656,145.4,656,144z"/>
						<path id="path3343" class="st36" d="M636,151c0-1.4,0.9-2.5,2-2.5c1.1,0,2,1.1,2,2.5s-0.9,2.5-2,2.5
							C636.9,153.5,636,152.4,636,151z"/>
						<path id="path3345" class="st36" d="M672,146c0-1.4,0.9-2.5,2-2.5c1.1,0,2,1.1,2,2.5s-0.9,2.5-2,2.5
							C672.9,148.5,672,147.4,672,146z"/>
						<path id="path3347" class="st36" d="M672,157.5c0-1.1,1.1-2,2.5-2s2.5,0.9,2.5,2s-1.1,2-2.5,2S672,158.6,672,157.5z"/>
						<path id="path3349" class="st37" d="M600,136.5c0-1.1,0.9-2,2-2c1.1,0,2,0.9,2,2s-0.9,2-2,2C600.9,138.5,600,137.6,600,136.5z
							"/>
						<path id="path3351" class="st37" d="M620,128.5c0-1.1,0.9-2,2-2c1.1,0,2,0.9,2,2c0,1.1-0.9,2-2,2
							C620.9,130.5,620,129.6,620,128.5z"/>
						<path id="path3353" class="st37" d="M598,119.5c0-1.1,1.1-2,2.5-2s2.5,0.9,2.5,2s-1.1,2-2.5,2S598,120.6,598,119.5z"/>
						<path id="path3355" class="st37" d="M615,120c0-1.4,1.1-2.5,2.5-2.5s2.5,1.1,2.5,2.5s-1.1,2.5-2.5,2.5S615,121.4,615,120z"/>
						<path id="path3357" class="st37" d="M605,126c0-1.4,0.9-2.5,2-2.5c1.1,0,2,1.1,2,2.5s-0.9,2.5-2,2.5
							C605.9,128.5,605,127.4,605,126z"/>
						<path id="path3359" class="st37" d="M619,173c0-1.4,0.9-2.5,2-2.5c1.1,0,2,1.1,2,2.5s-0.9,2.5-2,2.5
							C619.9,175.5,619,174.4,619,173z"/>
						<path id="path3361" class="st36" d="M676,129c0-1.4,0.9-2.5,2-2.5c1.1,0,2,1.1,2,2.5s-0.9,2.5-2,2.5
							C676.9,131.5,676,130.4,676,129z"/>
						<path id="path3363" class="st36" d="M652,131.5c0-1.1,0.9-2,2-2c1.1,0,2,0.9,2,2s-0.9,2-2,2C652.9,133.5,652,132.6,652,131.5z
							"/>
						<path id="path3365" class="st36" d="M639,138c0-1.4,0.9-2.5,2-2.5c1.1,0,2,1.1,2,2.5s-0.9,2.5-2,2.5
							C639.9,140.5,639,139.4,639,138z"/>
						<path id="path3367" class="st37" d="M600,169.5c0-1.1,1.1-2,2.5-2s2.5,0.9,2.5,2s-1.1,2-2.5,2S600,170.6,600,169.5z"/>
						<path id="path3369" class="st37" d="M592,169.5c0-1.1,0.9-2,2-2c1.1,0,2,0.9,2,2s-0.9,2-2,2C592.9,171.5,592,170.6,592,169.5z
							"/>
						<path id="path3371" class="st37" d="M601,158c0-1.4,1.1-2.5,2.5-2.5s2.5,1.1,2.5,2.5s-1.1,2.5-2.5,2.5S601,159.4,601,158z"/>
						<path id="path3373" class="st37" d="M608,169.5c0-1.1,1.1-2,2.5-2s2.5,0.9,2.5,2s-1.1,2-2.5,2S608,170.6,608,169.5z"/>
						<path id="path3375" class="st37" d="M593,177.5c0-1.1,0.9-2,2-2c1.1,0,2,0.9,2,2s-0.9,2-2,2C593.9,179.5,593,178.6,593,177.5z
							"/>
						<path id="path3377" class="st36" d="M649,162c0-1.4,0.9-2.5,2-2.5c1.1,0,2,1.1,2,2.5s-0.9,2.5-2,2.5
							C649.9,164.5,649,163.4,649,162z"/>
						<path id="path3379" class="st36" d="M655,168.5c0-1.1,0.9-2,2-2c1.1,0,2,0.9,2,2s-0.9,2-2,2C655.9,170.5,655,169.6,655,168.5z
							"/>
						<path id="path3381" class="st36" d="M657,159.5c0-1.1,1.1-2,2.5-2s2.5,0.9,2.5,2s-1.1,2-2.5,2S657,160.6,657,159.5z"/>
						<path id="path3383" class="st37" d="M598,180.5c0-1.1,1.1-2,2.5-2s2.5,0.9,2.5,2s-1.1,2-2.5,2S598,181.6,598,180.5z"/>
						<path id="path3385" class="st37" d="M605,186.5c0-1.1,0.9-2,2-2c1.1,0,2,0.9,2,2s-0.9,2-2,2C605.9,188.5,605,187.6,605,186.5z
							"/>
						<path id="path3387" class="st37" d="M607,177.5c0-1.1,0.9-2,2-2c1.1,0,2,0.9,2,2s-0.9,2-2,2C607.9,179.5,607,178.6,607,177.5z
							"/>
						<path id="path3389" class="st37" d="M613,184c0-1.4,1.1-2.5,2.5-2.5s2.5,1.1,2.5,2.5s-1.1,2.5-2.5,2.5S613,185.4,613,184z"/>
						<path id="path3391" class="st37" d="M613,192.5c0-1.1,0.9-2,2-2c1.1,0,2,0.9,2,2s-0.9,2-2,2C613.9,194.5,613,193.6,613,192.5z
							"/>
						<path id="path3393" class="st37" d="M622,185c0-1.4,0.9-2.5,2-2.5c1.1,0,2,1.1,2,2.5s-0.9,2.5-2,2.5
							C622.9,187.5,622,186.4,622,185z"/>
						<path id="path3395" class="st36" d="M678,150c0-1.4,0.9-2.5,2-2.5c1.1,0,2,1.1,2,2.5s-0.9,2.5-2,2.5
							C678.9,152.5,678,151.4,678,150z"/>
						<path id="path3397" class="st36" d="M684,146.5c0-1.1,1.1-2,2.5-2s2.5,0.9,2.5,2s-1.1,2-2.5,2S684,147.6,684,146.5z"/>
						<path id="path3399" class="st36" d="M681,158c0-1.4,1.1-2.5,2.5-2.5s2.5,1.1,2.5,2.5s-1.1,2.5-2.5,2.5S681,159.4,681,158z"/>
						<path id="path3401" class="st36" d="M681,182.5c0-1.1,0.9-2,2-2c1.1,0,2,0.9,2,2s-0.9,2-2,2C681.9,184.5,681,183.6,681,182.5z
							"/>
						<path id="path3403" class="st36" d="M679,166c0-1.4,1.1-2.5,2.5-2.5s2.5,1.1,2.5,2.5s-1.1,2.5-2.5,2.5S679,167.4,679,166z"/>
						<path id="path3405" class="st36" d="M685,172c0-1.4,1.1-2.5,2.5-2.5s2.5,1.1,2.5,2.5s-1.1,2.5-2.5,2.5S685,173.4,685,172z"/>
						<path id="path3407" class="st36" d="M688,159c0-1.4,1.1-2.5,2.5-2.5s2.5,1.1,2.5,2.5s-1.1,2.5-2.5,2.5S688,160.4,688,159z"/>
						<path id="path3409" class="st36" d="M660,140c0-1.4,1.1-2.5,2.5-2.5s2.5,1.1,2.5,2.5s-1.1,2.5-2.5,2.5S660,141.4,660,140z"/>
						<path id="path3411" class="st36" d="M654,151.5c0-1.1,0.9-2,2-2c1.1,0,2,0.9,2,2s-0.9,2-2,2C654.9,153.5,654,152.6,654,151.5z
							"/>
						<path id="path3413" class="st36" d="M635,168c0-1.4,0.9-2.5,2-2.5c1.1,0,2,1.1,2,2.5s-0.9,2.5-2,2.5
							C635.9,170.5,635,169.4,635,168z"/>
						<path id="path3415" class="st36" d="M676,139c0-1.4,0.9-2.5,2-2.5c1.1,0,2,1.1,2,2.5s-0.9,2.5-2,2.5
							C676.9,141.5,676,140.4,676,139z"/>
						<path id="path3417" class="st36" d="M666,175.5c0-1.1,0.9-2,2-2c1.1,0,2,0.9,2,2s-0.9,2-2,2C666.9,177.5,666,176.6,666,175.5z
							"/>
						<path id="path3419" class="st37" d="M595,129.5c0-1.1,1.1-2,2.5-2s2.5,0.9,2.5,2c0,1.1-1.1,2-2.5,2S595,130.6,595,129.5z"/>
						<path id="path3421" class="st37" d="M608,137c0-1.4,0.9-2.5,2-2.5c1.1,0,2,1.1,2,2.5s-0.9,2.5-2,2.5
							C608.9,139.5,608,138.4,608,137z"/>
						<path id="path3423" class="st38" d="M627.1,159.8l6.9,13.1h24l19.1,13.6l11.6-0.8L697,159l-15.2-33.5l-41.5,4.1L621,144.8
							L627.1,159.8z"/>
						<path id="path3425" d="M588.5,209l94.3,0v-2l-94.3,0V209z M681.4,212l8-4l-8-4V212z"/>
						<text transform="matrix(1 0 0 1 741.924 230)" class="st6 st32">FSC-</text>
						<text transform="matrix(1 0 0 1 776.2573 230)" class="st6 st32">W</text>
						<path id="path3431" class="st36" d="M812,192c0-1.4,1.1-2.5,2.5-2.5s2.5,1.1,2.5,2.5s-1.1,2.5-2.5,2.5S812,193.4,812,192z"/>
						<path id="path3433" class="st36" d="M795,201c0-1.4,0.9-2.5,2-2.5c1.1,0,2,1.1,2,2.5s-0.9,2.5-2,2.5
							C795.9,203.5,795,202.4,795,201z"/>
						<path id="path3435" class="st36" d="M779,193.5c0-1.1,1.1-2,2.5-2s2.5,0.9,2.5,2s-1.1,2-2.5,2S779,194.6,779,193.5z"/>
						<path id="path3437" class="st36" d="M794,189c0-1.4,1.1-2.5,2.5-2.5s2.5,1.1,2.5,2.5s-1.1,2.5-2.5,2.5S794,190.4,794,189z"/>
						<path id="path3439" class="st36" d="M778,177c0-1.4,0.9-2.5,2-2.5c1.1,0,2,1.1,2,2.5s-0.9,2.5-2,2.5
							C778.9,179.5,778,178.4,778,177z"/>
						<path id="path3441" class="st36" d="M795,177.5c0-1.1,0.9-2,2-2c1.1,0,2,0.9,2,2s-0.9,2-2,2C795.9,179.5,795,178.6,795,177.5z
							"/>
						<path id="path3443" class="st36" d="M814,181.5c0-1.1,0.9-2,2-2c1.1,0,2,0.9,2,2s-0.9,2-2,2C814.9,183.5,814,182.6,814,181.5z
							"/>
						<path id="path3445" class="st36" d="M804,176c0-1.4,1.1-2.5,2.5-2.5s2.5,1.1,2.5,2.5s-1.1,2.5-2.5,2.5S804,177.4,804,176z"/>
						<path id="path3447" class="st36" d="M784,183c0-1.4,0.9-2.5,2-2.5c1.1,0,2,1.1,2,2.5s-0.9,2.5-2,2.5
							C784.9,185.5,784,184.4,784,183z"/>
						<path id="path3449" class="st39" d="M770,140c0-1.4,0.9-2.5,2-2.5c1.1,0,2,1.1,2,2.5s-0.9,2.5-2,2.5
							C770.9,142.5,770,141.4,770,140z"/>
						<path id="path3451" class="st39" d="M776,146c0-1.4,0.9-2.5,2-2.5c1.1,0,2,1.1,2,2.5s-0.9,2.5-2,2.5
							C776.9,148.5,776,147.4,776,146z"/>
						<path id="path3453" class="st39" d="M752,149c0-1.4,1.1-2.5,2.5-2.5s2.5,1.1,2.5,2.5s-1.1,2.5-2.5,2.5S752,150.4,752,149z"/>
						<path id="path3455" class="st39" d="M737,141.5c0-1.1,0.9-2,2-2c1.1,0,2,0.9,2,2s-0.9,2-2,2C737.9,143.5,737,142.6,737,141.5z
							"/>
						<path id="path3457" class="st39" d="M752,137c0-1.4,0.9-2.5,2-2.5c1.1,0,2,1.1,2,2.5s-0.9,2.5-2,2.5
							C752.9,139.5,752,138.4,752,137z"/>
						<path id="path3459" class="st39" d="M735,124.5c0-1.1,1.1-2,2.5-2s2.5,0.9,2.5,2s-1.1,2-2.5,2S735,125.6,735,124.5z"/>
						<path id="path3461" class="st39" d="M752,125c0-1.4,1.1-2.5,2.5-2.5s2.5,1.1,2.5,2.5s-1.1,2.5-2.5,2.5S752,126.4,752,125z"/>
						<path id="path3463" class="st39" d="M771,129.5c0-1.1,1.1-2,2.5-2s2.5,0.9,2.5,2c0,1.1-1.1,2-2.5,2S771,130.6,771,129.5z"/>
						<path id="path3465" class="st39" d="M762,124c0-1.4,0.9-2.5,2-2.5c1.1,0,2,1.1,2,2.5s-0.9,2.5-2,2.5
							C762.9,126.5,762,125.4,762,124z"/>
						<path id="path3467" class="st39" d="M742,131c0-1.4,0.9-2.5,2-2.5c1.1,0,2,1.1,2,2.5s-0.9,2.5-2,2.5
							C742.9,133.5,742,132.4,742,131z"/>
						<path id="path3469" class="st39" d="M778,126c0-1.4,0.9-2.5,2-2.5c1.1,0,2,1.1,2,2.5s-0.9,2.5-2,2.5
							C778.9,128.5,778,127.4,778,126z"/>
						<path id="path3471" class="st39" d="M778,137c0-1.4,1.1-2.5,2.5-2.5s2.5,1.1,2.5,2.5s-1.1,2.5-2.5,2.5S778,138.4,778,137z"/>
						<path id="path3473" class="st36" d="M818,154.5c0-1.1,0.9-2,2-2c1.1,0,2,0.9,2,2s-0.9,2-2,2C818.9,156.5,818,155.6,818,154.5z
							"/>
						<path id="path3475" class="st36" d="M800,163.5c0-1.1,0.9-2,2-2c1.1,0,2,0.9,2,2s-0.9,2-2,2C800.9,165.5,800,164.6,800,163.5z
							"/>
						<path id="path3477" class="st36" d="M787,170c0-1.4,0.9-2.5,2-2.5c1.1,0,2,1.1,2,2.5s-0.9,2.5-2,2.5
							C787.9,172.5,787,171.4,787,170z"/>
						<path id="path3479" class="st36" d="M799,151.5c0-1.1,1.1-2,2.5-2s2.5,0.9,2.5,2s-1.1,2-2.5,2S799,152.6,799,151.5z"/>
						<path id="path3481" class="st36" d="M807,151c0-1.4,1.1-2.5,2.5-2.5s2.5,1.1,2.5,2.5s-1.1,2.5-2.5,2.5S807,152.4,807,151z"/>
						<path id="path3483" class="st36" d="M792,159.5c0-1.1,0.9-2,2-2c1.1,0,2,0.9,2,2s-0.9,2-2,2C792.9,161.5,792,160.6,792,159.5z
							"/>
						<path id="path3485" class="st36" d="M797,194c0-1.4,0.9-2.5,2-2.5c1.1,0,2,1.1,2,2.5s-0.9,2.5-2,2.5
							C797.9,196.5,797,195.4,797,194z"/>
						<path id="path3487" class="st36" d="M803,200.5c0-1.1,0.9-2,2-2c1.1,0,2,0.9,2,2s-0.9,2-2,2C803.9,202.5,803,201.6,803,200.5z
							"/>
						<path id="path3489" class="st36" d="M805,191.5c0-1.1,1.1-2,2.5-2s2.5,0.9,2.5,2s-1.1,2-2.5,2S805,192.6,805,191.5z"/>
						<path id="path3491" class="st36" d="M731,185.5c0-1.1,1.1-2,2.5-2s2.5,0.9,2.5,2s-1.1,2-2.5,2S731,186.6,731,185.5z"/>
						<path id="path3493" class="st36" d="M738,191c0-1.4,0.9-2.5,2-2.5c1.1,0,2,1.1,2,2.5s-0.9,2.5-2,2.5
							C738.9,193.5,738,192.4,738,191z"/>
						<path id="path3495" class="st36" d="M740,182.5c0-1.1,0.9-2,2-2c1.1,0,2,0.9,2,2s-0.9,2-2,2C740.9,184.5,740,183.6,740,182.5z
							"/>
						<path id="path3497" class="st36" d="M746,189c0-1.4,1.1-2.5,2.5-2.5s2.5,1.1,2.5,2.5s-1.1,2.5-2.5,2.5S746,190.4,746,189z"/>
						<path id="path3499" class="st36" d="M746,197.5c0-1.1,0.9-2,2-2c1.1,0,2,0.9,2,2s-0.9,2-2,2C746.9,199.5,746,198.6,746,197.5z
							"/>
						<path id="path3501" class="st36" d="M758,190c0-1.4,0.9-2.5,2-2.5c1.1,0,2,1.1,2,2.5s-0.9,2.5-2,2.5
							C758.9,192.5,758,191.4,758,190z"/>
						<path id="path3503" class="st40" d="M731,120l2.5,29.5l25.1,8.9l29.5-11.1c-0.1-7.9-0.2-15.9-0.3-23.8l-33-7L731,120z"/>
						<path id="path3505" d="M725.5,208.9l0-94.3h-2l0,94.3H725.5z M728.5,116l-4-8l-4,8H728.5z"/>
						<text transform="matrix(6.123234e-17 -1 1 6.123234e-17 720.079 186.0004)" class="st6 st32">SSC</text>
						<text transform="matrix(6.123234e-17 -1 1 6.123234e-17 720.079 156.0004)" class="st6 st32">-</text>
						<text transform="matrix(6.123234e-17 -1 1 6.123234e-17 720.079 151.0004)" class="st6 st32">A</text>
						<path id="path3513" d="M723.5,207h100.4v2H723.5V207z M822.6,204l8,4l-8,4V204z"/>
						<path id="path3515" class="st39" d="M892,147c0-1.4,0.9-2.5,2-2.5c1.1,0,2,1.1,2,2.5s-0.9,2.5-2,2.5
							C892.9,149.5,892,148.4,892,147z"/>
						<path id="path3517" class="st39" d="M893,136.5c0-1.1,1.1-2,2.5-2s2.5,0.9,2.5,2s-1.1,2-2.5,2S893,137.6,893,136.5z"/>
						<path id="path3519" class="st39" d="M920,133.5c0-1.1,1.1-2,2.5-2s2.5,0.9,2.5,2s-1.1,2-2.5,2S920,134.6,920,133.5z"/>
						<path id="path3521" class="st39" d="M900,132.5c0-1.1,0.9-2,2-2c1.1,0,2,0.9,2,2s-0.9,2-2,2C900.9,134.5,900,133.6,900,132.5z
							"/>
						<path id="path3523" class="st39" d="M900,144c0-1.4,1.1-2.5,2.5-2.5s2.5,1.1,2.5,2.5s-1.1,2.5-2.5,2.5S900,145.4,900,144z"/>
						<path id="path3525" class="st39" d="M908,136.5c0-1.1,0.9-2,2-2c1.1,0,2,0.9,2,2s-0.9,2-2,2C908.9,138.5,908,137.6,908,136.5z
							"/>
						<path id="path3527" class="st39" d="M908,148.5c0-1.1,1.1-2,2.5-2s2.5,0.9,2.5,2s-1.1,2-2.5,2S908,149.6,908,148.5z"/>
						<path id="path3529" class="st39" d="M915,141.5c0-1.1,0.9-2,2-2c1.1,0,2,0.9,2,2s-0.9,2-2,2C915.9,143.5,915,142.6,915,141.5z
							"/>
						<path id="path3531" class="st39" d="M923,146.5c0-1.1,0.9-2,2-2c1.1,0,2,0.9,2,2s-0.9,2-2,2C923.9,148.5,923,147.6,923,146.5z
							"/>
						<path id="path3533" class="st39" d="M929,142.5c0-1.1,0.9-2,2-2c1.1,0,2,0.9,2,2s-0.9,2-2,2C929.9,144.5,929,143.6,929,142.5z
							"/>
						<path id="path3535" class="st39" d="M937,146.5c0-1.1,1.1-2,2.5-2s2.5,0.9,2.5,2s-1.1,2-2.5,2S937,147.6,937,146.5z"/>
						<path id="path3537" class="st39" d="M942,158.5c0-1.1,0.9-2,2-2c1.1,0,2,0.9,2,2s-0.9,2-2,2C942.9,160.5,942,159.6,942,158.5z
							"/>
						<path id="path3539" class="st41" d="M875,177.5c0-1.1,0.9-2,2-2c1.1,0,2,0.9,2,2s-0.9,2-2,2C875.9,179.5,875,178.6,875,177.5z
							"/>
						<path id="path3541" class="st41" d="M881,174c0-1.4,1.1-2.5,2.5-2.5s2.5,1.1,2.5,2.5s-1.1,2.5-2.5,2.5S881,175.4,881,174z"/>
						<path id="path3543" class="st41" d="M889,177.5c0-1.1,1.1-2,2.5-2s2.5,0.9,2.5,2s-1.1,2-2.5,2S889,178.6,889,177.5z"/>
						<path id="path3545" class="st41" d="M894,189.5c0-1.1,0.9-2,2-2c1.1,0,2,0.9,2,2s-0.9,2-2,2C894.9,191.5,894,190.6,894,189.5z
							"/>
						<path id="path3547" class="st41" d="M875,198.5c0-1.1,0.9-2,2-2c1.1,0,2,0.9,2,2s-0.9,2-2,2C875.9,200.5,875,199.6,875,198.5z
							"/>
						<path id="path3549" class="st41" d="M876,188.5c0-1.1,1.1-2,2.5-2s2.5,0.9,2.5,2s-1.1,2-2.5,2S876,189.6,876,188.5z"/>
						<path id="path3551" class="st41" d="M882,184.5c0-1.1,1.1-2,2.5-2s2.5,0.9,2.5,2s-1.1,2-2.5,2S882,185.6,882,184.5z"/>
						<path id="path3553" class="st41" d="M883,196c0-1.4,1.1-2.5,2.5-2.5s2.5,1.1,2.5,2.5s-1.1,2.5-2.5,2.5S883,197.4,883,196z"/>
						<path id="path3555" class="st42" d="M873,171.3l0.2,31.2h7.3l22.4-11.3l-6.5-17.6l-12.4-5.1L873,171.3z"/>
						<path id="path3557" class="st39" d="M923,190c0-1.4,1.1-2.5,2.5-2.5s2.5,1.1,2.5,2.5s-1.1,2.5-2.5,2.5S923,191.4,923,190z"/>
						<path id="path3559" class="st39" d="M925,179.5c0-1.1,0.9-2,2-2c1.1,0,2,0.9,2,2s-0.9,2-2,2C925.9,181.5,925,180.6,925,179.5z
							"/>
						<path id="path3561" class="st39" d="M931,176c0-1.4,0.9-2.5,2-2.5c1.1,0,2,1.1,2,2.5s-0.9,2.5-2,2.5
							C931.9,178.5,931,177.4,931,176z"/>
						<path id="path3563" class="st39" d="M932,187.5c0-1.1,0.9-2,2-2c1.1,0,2,0.9,2,2s-0.9,2-2,2C932.9,189.5,932,188.6,932,187.5z
							"/>
						<path id="path3565" class="st39" d="M948,198c0-1.4,0.9-2.5,2-2.5c1.1,0,2,1.1,2,2.5s-0.9,2.5-2,2.5
							C948.9,200.5,948,199.4,948,198z"/>
						<path id="path3567" class="st39" d="M954,194c0-1.4,0.9-2.5,2-2.5c1.1,0,2,1.1,2,2.5s-0.9,2.5-2,2.5
							C954.9,196.5,954,195.4,954,194z"/>
						<path id="path3569" d="M868.5,210.1l0-92.4h-2l0,92.4H868.5z M871.5,119l-4-8l-4,8H871.5z"/>
						<text transform="matrix(6.123234e-17 -1 1 6.123234e-17 863.459 187.0004)" class="st6 st32">SSC</text>
						<text transform="matrix(6.123234e-17 -1 1 6.123234e-17 863.459 157.0004)" class="st6 st32">-</text>
						<text transform="matrix(6.123234e-17 -1 1 6.123234e-17 863.459 152.0004)" class="st6 st32">A</text>
						<text transform="matrix(1 0 0 1 895.938 232)" class="st6 st32">FSC-</text>
						<text transform="matrix(1 0 0 1 930.2712 232)" class="st6 st32">A</text>
						<path id="path3581" d="M868.5,209.8l105-0.8l0-2l-105,0.8L868.5,209.8z M972.2,212.1l8-4.1l-8-3.9L972.2,212.1z"/>
						<path id="path3583" class="st41" d="M1085,201c0-1.4,1.1-2.5,2.5-2.5s2.5,1.1,2.5,2.5s-1.1,2.5-2.5,2.5S1085,202.4,1085,201z"
							/>
						<path id="path3585" class="st41" d="M1069,193.5c0-1.1,1.1-2,2.5-2s2.5,0.9,2.5,2s-1.1,2-2.5,2S1069,194.6,1069,193.5z"/>
						<path id="path3587" class="st41" d="M1084,189c0-1.4,1.1-2.5,2.5-2.5s2.5,1.1,2.5,2.5s-1.1,2.5-2.5,2.5S1084,190.4,1084,189z"
							/>
						<path id="path3589" class="st41" d="M1068,176.5c0-1.1,0.9-2,2-2s2,0.9,2,2s-0.9,2-2,2S1068,177.6,1068,176.5z"/>
						<path id="path3591" class="st41" d="M1085,177c0-1.4,1.1-2.5,2.5-2.5s2.5,1.1,2.5,2.5s-1.1,2.5-2.5,2.5S1085,178.4,1085,177z"
							/>
						<path id="path3593" class="st41" d="M1094,176c0-1.4,1.1-2.5,2.5-2.5s2.5,1.1,2.5,2.5s-1.1,2.5-2.5,2.5S1094,177.4,1094,176z"
							/>
						<path id="path3595" class="st41" d="M1074,183c0-1.4,1.1-2.5,2.5-2.5s2.5,1.1,2.5,2.5s-1.1,2.5-2.5,2.5S1074,184.4,1074,183z"
							/>
						<path id="path3597" class="st29" d="M1065,140.5c0-1.1,0.9-2,2-2s2,0.9,2,2s-0.9,2-2,2S1065,141.6,1065,140.5z"/>
						<path id="path3599" class="st29" d="M1071,146.5c0-1.1,1.1-2,2.5-2s2.5,0.9,2.5,2s-1.1,2-2.5,2S1071,147.6,1071,146.5z"/>
						<path id="path3601" class="st29" d="M1048,149.5c0-1.1,0.9-2,2-2s2,0.9,2,2s-0.9,2-2,2S1048,150.6,1048,149.5z"/>
						<path id="path3603" class="st29" d="M1032,142c0-1.4,0.9-2.5,2-2.5s2,1.1,2,2.5s-0.9,2.5-2,2.5S1032,143.4,1032,142z"/>
						<path id="path3605" class="st29" d="M1047,137.5c0-1.1,0.9-2,2-2s2,0.9,2,2s-0.9,2-2,2S1047,138.6,1047,137.5z"/>
						<path id="path3607" class="st29" d="M1031,125.5c0-1.1,0.9-2,2-2s2,0.9,2,2s-0.9,2-2,2S1031,126.6,1031,125.5z"/>
						<path id="path3609" class="st29" d="M1048,125.5c0-1.1,0.9-2,2-2s2,0.9,2,2s-0.9,2-2,2S1048,126.6,1048,125.5z"/>
						<path id="path3611" class="st29" d="M1066,130c0-1.4,1.1-2.5,2.5-2.5s2.5,1.1,2.5,2.5s-1.1,2.5-2.5,2.5S1066,131.4,1066,130z"
							/>
						<path id="path3613" class="st29" d="M1057,124.5c0-1.1,0.9-2,2-2s2,0.9,2,2s-0.9,2-2,2S1057,125.6,1057,124.5z"/>
						<path id="path3615" class="st29" d="M1037,131.5c0-1.1,0.9-2,2-2s2,0.9,2,2s-0.9,2-2,2S1037,132.6,1037,131.5z"/>
						<path id="path3617" class="st29" d="M1073,126.5c0-1.1,0.9-2,2-2s2,0.9,2,2s-0.9,2-2,2S1073,127.6,1073,126.5z"/>
						<path id="path3619" class="st29" d="M1073,137.5c0-1.1,1.1-2,2.5-2s2.5,0.9,2.5,2s-1.1,2-2.5,2S1073,138.6,1073,137.5z"/>
						<path id="path3621" class="st41" d="M1077,170c0-1.4,0.9-2.5,2-2.5s2,1.1,2,2.5s-0.9,2.5-2,2.5S1077,171.4,1077,170z"/>
						<path id="path3623" class="st41" d="M1087,194c0-1.4,1.1-2.5,2.5-2.5s2.5,1.1,2.5,2.5s-1.1,2.5-2.5,2.5S1087,195.4,1087,194z"
							/>
						<path id="path3625" class="st41" d="M1093,200.5c0-1.1,1.1-2,2.5-2s2.5,0.9,2.5,2s-1.1,2-2.5,2S1093,201.6,1093,200.5z"/>
						<path id="path3627" class="st41" d="M1095,191.5c0-1.1,1.1-2,2.5-2s2.5,0.9,2.5,2s-1.1,2-2.5,2S1095,192.6,1095,191.5z"/>
						<path id="path3629" class="st41" d="M1026,186c0-1.4,1.1-2.5,2.5-2.5s2.5,1.1,2.5,2.5s-1.1,2.5-2.5,2.5S1026,187.4,1026,186z"
							/>
						<path id="path3631" class="st41" d="M1033,191.5c0-1.1,0.9-2,2-2s2,0.9,2,2s-0.9,2-2,2S1033,192.6,1033,191.5z"/>
						<path id="path3633" class="st41" d="M1035,183.5c0-1.1,0.9-2,2-2s2,0.9,2,2s-0.9,2-2,2S1035,184.6,1035,183.5z"/>
						<path id="path3635" class="st41" d="M1041,189.5c0-1.1,1.1-2,2.5-2s2.5,0.9,2.5,2s-1.1,2-2.5,2S1041,190.6,1041,189.5z"/>
						<path id="path3637" class="st41" d="M1041,198c0-1.4,0.9-2.5,2-2.5s2,1.1,2,2.5s-0.9,2.5-2,2.5S1041,199.4,1041,198z"/>
						<path id="path3639" class="st41" d="M1053,190.5c0-1.1,1.1-2,2.5-2s2.5,0.9,2.5,2s-1.1,2-2.5,2S1053,191.6,1053,190.5z"/>
						<path id="path3641" class="st43" d="M1026,120.1l2.4,30.2l25.1,9.2l29.4-11.4c-0.1-8.1-0.2-16.3-0.3-24.4l-33-7.2L1026,120.1z
							"/>
						<path id="path3643" d="M1012.5,209.9l0-94.3h-2l0,94.3H1012.5z M1015.5,117l-4-8l-4,8H1015.5z"/>
						<text transform="matrix(6.123234e-17 -1 1 6.123234e-17 1007.24 187.0004)" class="st6 st32">SSC</text>
						<text transform="matrix(6.123234e-17 -1 1 6.123234e-17 1007.24 157.0004)" class="st6 st32">-</text>
						<text transform="matrix(6.123234e-17 -1 1 6.123234e-17 1007.24 152.0004)" class="st6 st32">A</text>
						<text id="text3651" transform="matrix(1 0 0 1 1040.34 231)" class="st6 st32">CD19</text>
						<path id="path3653" d="M1011.5,208l99.2,0.6l0,2l-99.2-0.6L1011.5,208z M1109.3,205.6l8,4l-8,4L1109.3,205.6z"/>
						<text transform="matrix(1 0 0 1 816.1379 53)" class="st6 st26">Prediction</text>
						<text transform="matrix(1 0 0 1 595.746 410)" class="st6 st15">Prediction</text>
						<text transform="matrix(1 0 0 1 613.246 429)" class="st6 st15">Head</text>
						<rect id="rect3661" x="605" y="337.5" class="st24" width="29" height="48"/>
						<text id="text3663" transform="matrix(6.123234e-17 -1 1 6.123234e-17 623.725 372.0004)" class="st6 st10">FNN</text>
						<path id="path3665" class="st12" d="M553.3,296h-15.8"/>
						<path id="path3667" class="st12" d="M553.3,319h-15.8"/>
						<path id="path3669" class="st12" d="M553.3,341h-15.8"/>
						<path id="path3671" class="st12" d="M554.3,364h-15.8"/>
						<path id="path3673" class="st12" d="M554.3,404h-15.8"/>
						<path id="path3675" class="st12" d="M553.3,424h-15.8"/>
						<path id="path3677" class="st12" d="M554.3,383h-15.8"/>
						<rect id="rect3679" x="554" y="290.5" class="st18" width="12" height="12"/>
						<rect id="rect3681" x="554" y="313.5" class="st19" width="12" height="12"/>
						<rect id="rect3683" x="554" y="335.5" class="st20" width="12" height="12"/>
						<rect id="rect3685" x="554" y="419.5" class="st21" width="12" height="12"/>
						<rect id="rect3687" x="554" y="358.5" class="st22" width="13" height="12"/>
						<rect id="rect3689" x="554" y="376.5" class="st21" width="12" height="12"/>
						<rect id="rect3691" x="554" y="398.5" class="st21" width="12" height="11"/>
						<path id="path3693" class="st12" d="M537.5,426.3V296"/>
						<path id="path3695" class="st4" d="M565.6,318l3.7,0.5l3.7,1.4l3.4,2.2l3.1,2.8l2.5,3.3l2,3.7l1.2,3.9l0.4,4l0.4,3.9l0-0.2
							l1.2,3.8l-0.1-0.2l1.9,3.5l-0.1-0.1l2.4,3.2l-0.1-0.1l2.9,2.7l-0.1-0.1l3.2,2.1l-0.2-0.1l3.2,1l-0.6,1.9l-3.3-1l-3.4-2.2
							l-3.1-2.8l-2.5-3.3l-2-3.7l-1.2-4l-0.4-4l-0.4-3.9l0,0.2l-1.2-3.8l0.1,0.2l-1.9-3.6l0.1,0.1l-2.4-3.2l0.1,0.1l-2.9-2.7
							l0.1,0.1l-3.2-2.1l0.2,0.1l-3.5-1.3l0.2,0.1l-3.6-0.5L565.6,318z M599.5,357.2l4.7,3.7l-5.8,1.5L599.5,357.2z"/>
						<path id="path3697" class="st4" d="M565.6,295l1.9,0.2l2,0.6l3.7,2.2l3.4,3.3l3,4.3l2.5,5.1l2,5.6l1.2,6.1l0.4,6.1l0.4,6.1
							l0-0.1l1.2,5.9l0-0.1l1.9,5.5l0-0.1l2.4,4.9l-0.1-0.1l2.9,4.2l-0.1-0.1l3.2,3.2l-0.3-0.2l3.3,1.6l-0.9,1.8l-3.4-1.7l-3.4-3.4
							l-3-4.3l-2.5-5.1l-2-5.6l-1.2-6l-0.4-6.1l-0.4-6.1l0,0.1l-1.2-5.9l0,0.1l-1.9-5.5l0,0.1l-2.4-4.9l0.1,0.1l-2.9-4.2l0.1,0.1
							l-3.2-3.2l0.2,0.1l-3.5-2.1l0.2,0.1l-1.8-0.6l0.2,0l-1.8-0.2L565.6,295z M599.7,357l4.3,4.2l-5.9,0.9L599.7,357z"/>
						<path id="path3699" class="st4" d="M565.7,425.9l3.8-0.8l3.7-2.1l3.4-3.3l3-4.2l2.5-5l2-5.5l1.2-5.9l0.4-6l0.4-5.9l0,0.1
							l1.2-5.8l0,0.1l1.9-5.4l0,0.1l2.4-4.8l-0.1,0.1l2.9-4.1l-0.1,0.1l3.2-3.1l-0.3,0.2l3.2-1.6l-0.9-1.8l-3.4,1.6l-3.4,3.3l-3,4.3
							l-2.5,4.9l-2,5.6l-1.2,5.9l-0.4,6l-0.4,5.9l0-0.1l-1.2,5.8l0-0.1l-1.9,5.4l0-0.1l-2.4,4.9l0.1-0.1l-2.9,4.1l0.1-0.1l-3.2,3.2
							l0.2-0.2l-3.5,2l0.3-0.1l-3.6,0.8L565.7,425.9z M599.8,365.1l4.3-4.1l-5.9-1L599.8,365.1z"/>
						<path id="path3701" class="st4" d="M565.6,404.7l3.7-0.5l3.7-1.4l3.4-2.2l3.1-2.9l2.5-3.4l2-3.7l1.2-4.1l0.4-4.1l0.4-4l0,0.2
							l1.2-3.9l-0.1,0.2l1.9-3.6l-0.1,0.1l2.4-3.2l-0.1,0.1l2.9-2.8l-0.1,0.1l3.2-2.1l-0.3,0.1l3.2-1l-0.6-1.9l-3.3,1l-3.4,2.2
							L590,367l-2.5,3.4l-2,3.7l-1.2,4.1l-0.4,4.1l-0.4,4l0-0.2l-1.2,3.9l0.1-0.2l-1.9,3.6l0.1-0.1l-2.4,3.2l0.1-0.1l-2.9,2.8
							l0.1-0.1l-3.2,2.1l0.2-0.1l-3.5,1.3l0.2-0.1l-3.6,0.5L565.6,404.7z M599.3,364.7l4.7-3.7l-5.8-1.5L599.3,364.7z"/>
						<path id="path3703" class="st4" d="M565.6,383.6l3.7-0.3l3.6-0.7l3.4-1.1l3.1-1.4l2.6-1.7l2.1-2l1.3-2.2l0.5-2.2l0.4-2
							l-0.1,0.3l1.2-2l-0.2,0.2l1.9-1.8l-0.2,0.1l2.5-1.6l-0.1,0.1l2.9-1.4l-0.1,0l3.2-1.1l-0.2,0l3.1-0.5l-0.3-2l-3.2,0.5l-3.4,1.1
							l-3.1,1.4l-2.6,1.7l-2,2l-1.4,2.3l-0.5,2.2l-0.4,2l0.1-0.3l-1.2,1.9l0.2-0.2l-1.9,1.9l0.1-0.1l-2.4,1.6l0.1-0.1l-2.9,1.4
							l0.1,0l-3.3,1.1l0.1,0l-3.5,0.7l0.1,0l-3.6,0.2L565.6,383.6z M599.1,364.2l5-3.2l-5.6-2.1L599.1,364.2z"/>
						<path id="path3705" class="st4" d="M566.5,365.2l7.1-0.1l3.3-0.2l3-0.2l2.5-0.3l2-0.3l1.4-0.4l0.6-0.4l0.4-0.3l-0.4,0.2
							l1.2-0.2l-0.1,0l1.9-0.2l0,0l2.4-0.2l0,0l2.9-0.2l0,0l3.2-0.2l0,0l3.1-0.1l0-2l-3.1,0.1l-3.3,0.2l-3,0.2l-2.5,0.3l-2,0.3
							l-1.4,0.3l-0.6,0.4l-0.4,0.3l0.3-0.2l-1.2,0.3l0.1,0l-1.9,0.2l0,0l-2.4,0.2l0,0l-2.9,0.2l0,0l-3.2,0.2l0,0l-7.1,0.1
							L566.5,365.2z M599.7,363.7l5.3-2.8l-5.4-2.6L599.7,363.7z"/>
						<path id="path3707" class="st4" d="M565.6,340l3.7,0.3l3.6,0.6l3.4,1l3.1,1.4l2.6,1.6l2.1,1.9l1.4,2.1l0.5,2l0.4,1.9l-0.1-0.3
							l1.2,1.8l-0.2-0.2l1.9,1.8l-0.1-0.1l2.4,1.5l-0.1-0.1l2.9,1.2l-0.1,0l3.2,1l-0.1,0l3.1,0.5l-0.3,2l-3.2-0.5l-3.4-1l-3.1-1.3
							l-2.6-1.6l-2.1-1.9l-1.4-2.1l-0.5-2l-0.4-1.9l0.1,0.3l-1.2-1.8l0.2,0.2l-1.9-1.8l0.1,0.1l-2.4-1.5l0.1,0.1l-2.9-1.3l0.1,0
							l-3.2-1l0.1,0l-3.5-0.6l0.1,0l-3.6-0.2L565.6,340z M599,358l5,3.2l-5.6,2.1L599,358z"/>
						<path id="path3709" class="st12" d="M619.5,237h406.1"/>
						<path id="path3711" class="st4" d="M618.2,243.7l-0.7,92.8l2,0l0.7-92.8L618.2,243.7z M623.2,245l-3.9-8l-4.1,8L623.2,245z"/>
						<path id="path3713" class="st12" d="M703.5,248.7l0-11.7"/>
						<path id="path3715" class="st12" d="M869.5,249.7l0-11.7"/>
						<path id="path3717" class="st12" d="M1024.5,250.6l0-13.6"/>
						<path id="path3719" class="st12" d="M565.5,238.1l0-158.1"/>
						<path id="path3721" class="st12" d="M564.5,80l57.9,0"/>
						<path id="path3723" class="st12" d="M565.5,237H623"/>
						<rect id="rect3725" x="313" y="345.5" class="st8" width="24" height="55"/>
						<text transform="matrix(6.123234e-17 -1 1 6.123234e-17 324.213 390.0004)" class="st6 st17">Induced </text>
						<text transform="matrix(6.123234e-17 -1 1 6.123234e-17 333.213 386.0004)" class="st6 st17">Points</text>
					</g>
				</g>
			</g>
		</g>
	</g>
</g>
</svg>
